<?xml version="1.0" encoding="UTF-8" standalone="no"?>
<!-- Created with Inkscape (http://www.inkscape.org/) -->

<svg
   width="150mm"
   height="150mm"
   viewBox="0 0 150 150"
   version="1.1"
   id="svg5"
   inkscape:version="1.1.2 (0a00cf5339, 2022-02-04)"
   sodipodi:docname="lncc-logo.svg"
   xmlns:inkscape="http://www.inkscape.org/namespaces/inkscape"
   xmlns:sodipodi="http://sodipodi.sourceforge.net/DTD/sodipodi-0.dtd"
   xmlns="http://www.w3.org/2000/svg"
   xmlns:svg="http://www.w3.org/2000/svg">
  <sodipodi:namedview
     id="namedview7"
     pagecolor="#ffffff"
     bordercolor="#666666"
     borderopacity="1.0"
     inkscape:pageshadow="2"
     inkscape:pageopacity="0.0"
     inkscape:pagecheckerboard="0"
     inkscape:document-units="mm"
     showgrid="false"
     width="150mm"
     inkscape:zoom="0.50176931"
     inkscape:cx="53.809588"
     inkscape:cy="415.5296"
     inkscape:window-width="1366"
     inkscape:window-height="704"
     inkscape:window-x="0"
     inkscape:window-y="27"
     inkscape:window-maximized="1"
     inkscape:current-layer="layer1" />
  <defs
     id="defs2" />
  <g
     inkscape:label="Layer 1"
     inkscape:groupmode="layer"
     id="layer1">
    <path
       style="fill:#000080;stroke-width:0.522167"
       d="m 60.48375,115.62462 c -0.41342,-0.41343 -0.626601,-2.63404 -0.626601,-6.5271 v -5.90049 H 47.064049 34.270953 V 88.559963 73.922898 l 6.527089,-6.694387 6.527093,-6.694387 v -6.114599 -6.114597 l 5.014958,-5.319944 c 2.758228,-2.925972 5.921294,-6.201105 7.029037,-7.278074 l 2.014081,-1.958128 h 13.231055 c 9.594594,0 13.403266,0.172211 13.857652,0.6266 0.409999,0.409999 0.6266,2.576026 0.6266,6.266008 v 5.639406 h 13.315272 13.31526 v 14.369102 14.3691 l -6.77532,7.170298 -6.77532,7.170302 -0.0128,6.842376 -0.0128,6.842386 -6.998791,6.60342 -6.998791,6.60344 H 74.632854 c -9.821187,0 -13.693891,-0.17151 -14.148984,-0.6266 z m 24.959596,-7.20591 v -4.69951 h -5.080223 -5.080221 l -4.31879,4.29634 c -2.375334,2.363 -4.318789,4.47779 -4.318789,4.69952 0,0.22174 4.229555,0.40315 9.399012,0.40315 h 9.399011 z m 7.310342,-1.30542 3.363917,-3.39409 h -3.509544 -3.509543 v 3.39409 c 0,1.86675 0.06552,3.39409 0.145628,3.39409 0.08009,0 1.659391,-1.52734 3.509542,-3.39409 z m -24.41132,-1.53148 4.046796,-4.39517 V 83.796967 66.407295 l -4.438421,4.415365 -4.438423,4.415365 v 17.37359 c 0,9.555485 0.176237,17.371745 0.391626,17.369485 0.215393,-0.002 2.212684,-1.98195 4.438422,-4.39929 z M 98.49753,88.315265 V 76.044332 h -4.873085 -4.873079 l -6.353519,6.480035 -6.353512,6.480029 v 5.790902 5.790902 H 87.270932 98.49753 Z m -38.640381,0 V 76.566502 H 48.630551 37.403956 V 88.315265 100.06403 H 48.630551 59.857149 Z M 85.443346,57.182371 v -17.11217 l -4.685528,4.802341 -4.685527,4.802342 0.01129,17.231522 0.01129,17.231521 4.674206,-4.921694 4.674185,-4.92169 z m 24.019694,19.267592 c 0,-0.223097 -1.64483,-0.405631 -3.65517,-0.405631 h -3.65517 v 4.032793 4.032793 l 3.65517,-3.627162 c 2.01034,-1.994941 3.65517,-3.809698 3.65517,-4.032793 z M 47.325135,69.256158 c 0,-2.010344 -0.08329,-3.65517 -0.18506,-3.65517 -0.101775,0 -1.646896,1.644826 -3.433585,3.65517 l -3.248524,3.655171 h 3.433585 3.433584 z M 66.506613,67.045466 72.389164,61.1796 V 55.818868 50.458135 H 61.684735 50.980305 v 11.226598 11.226596 h 4.821877 4.821877 z M 112.07387,61.423649 V 49.93597 H 100.58619 89.098518 v 11.487679 11.48768 h 11.487672 11.48768 z M 60.379315,43.408877 c 0,-1.866747 -0.06552,-3.394087 -0.145627,-3.394087 -0.08009,0 -1.659389,1.52734 -3.509545,3.394087 l -3.363918,3.394088 h 3.509544 3.509545 z m 17.61224,-0.902263 c 2.375334,-2.362994 4.318787,-4.477772 4.318787,-4.699506 0,-0.221736 -4.112065,-0.403153 -9.137928,-0.403153 h -9.137926 v 4.699504 4.699506 h 4.819138 4.81914 z"
       id="path908"
       sodipodi:nodetypes="sscccccccccsscssscccccccccccsssccccsssccscccsssscccccscscccccccccccccccccccccccccccccsscccssssscccsccccccccccccccccccccssscccsssscccccs" />
  </g>
</svg>
