<?xml version="1.0" encoding="UTF-8" standalone="no"?>
<!-- Created with Inkscape (http://www.inkscape.org/) -->

<svg
   width="600"
   height="400"
   viewBox="0 0 158.75 105.83333"
   version="1.1"
   id="svg5"
   inkscape:version="1.2 (56b05e47e7, 2022-06-09, custom)"
   sodipodi:docname="xiv-img.svg"
   xmlns:inkscape="http://www.inkscape.org/namespaces/inkscape"
   xmlns:sodipodi="http://sodipodi.sourceforge.net/DTD/sodipodi-0.dtd"
   xmlns="http://www.w3.org/2000/svg"
   xmlns:svg="http://www.w3.org/2000/svg">
  <sodipodi:namedview
     id="namedview7"
     pagecolor="#ffffff"
     bordercolor="#666666"
     borderopacity="1.0"
     inkscape:showpageshadow="2"
     inkscape:pageopacity="0.0"
     inkscape:pagecheckerboard="0"
     inkscape:deskcolor="#d1d1d1"
     inkscape:document-units="mm"
     showgrid="false"
     inkscape:zoom="0.77949635"
     inkscape:cx="405.38997"
     inkscape:cy="229.63546"
     inkscape:window-width="1920"
     inkscape:window-height="1043"
     inkscape:window-x="0"
     inkscape:window-y="0"
     inkscape:window-maximized="1"
     inkscape:current-layer="layer1" />
  <defs
     id="defs2" />
  <g
     inkscape:label="Layer 1"
     inkscape:groupmode="layer"
     id="layer1">
    <rect
       style="fill:#f9f9f9;stroke:#666666;stroke-width:0.264033"
       id="rect291"
       width="158.48598"
       height="105.5693"
       x="0.13201141"
       y="0.13201778" />
    <g
       aria-label="xiv"
       id="text401"
       style="font-size:64.1531px;line-height:1.25;fill:#333333;stroke-width:1.60383">
      <path
         d="m 70.361522,70.458534 h -5.48509 q -0.705684,0 -1.122679,-0.352842 -0.384919,-0.384918 -0.641531,-0.83399 l -8.179521,-12.73439 q -0.128306,0.449071 -0.288688,0.898143 -0.128307,0.416995 -0.384919,0.769837 l -7.570066,11.06641 q -0.320765,0.449072 -0.705684,0.83399 -0.352842,0.352842 -0.994373,0.352842 H 39.8888 L 51.275975,53.778728 40.337871,37.96499 h 5.48509 q 0.705685,0 1.02645,0.224535 0.320766,0.224536 0.577378,0.641531 l 7.987061,12.189089 q 0.256612,-0.93022 0.801913,-1.796287 l 6.992688,-10.264495 q 0.288689,-0.449072 0.609455,-0.705684 0.352842,-0.288689 0.83399,-0.288689 H 69.91245 L 58.974347,53.49004 Z"
         style="font-family:Lato;-inkscape-font-specification:Lato"
         id="path553" />
      <path
         d="M 81.652415,37.96499 V 70.458534 H 75.942789 V 37.96499 Z"
         style="font-family:Lato;-inkscape-font-specification:Lato"
         id="path555"
         sodipodi:nodetypes="ccccc" />
      <path
         d="m 118.8612,37.96499 -13.24762,32.493544 h -5.13224 L 87.233721,37.96499 h 4.6511 q 0.705684,0 1.154755,0.352842 0.449072,0.352842 0.609455,0.83399 l 8.243669,20.91391 q 0.38492,1.186833 0.67361,2.309512 0.28869,1.122679 0.5453,2.245358 0.25662,-1.122679 0.5453,-2.245358 0.28869,-1.122679 0.70569,-2.309512 l 8.3399,-20.91391 q 0.19246,-0.513225 0.64153,-0.83399 0.44907,-0.352842 1.05853,-0.352842 z"
         style="font-family:Lato;-inkscape-font-specification:Lato"
         id="path557" />
    </g>
  </g>
</svg>
