<?xml version="1.0" encoding="UTF-8" standalone="no"?>
<!-- Created with Inkscape (http://www.inkscape.org/) -->

<svg
   width="600"
   height="400"
   viewBox="0 0 158.75 105.83333"
   version="1.1"
   id="svg5"
   inkscape:version="1.2 (56b05e47e7, 2022-06-09, custom)"
   sodipodi:docname="xv-img.svg"
   xmlns:inkscape="http://www.inkscape.org/namespaces/inkscape"
   xmlns:sodipodi="http://sodipodi.sourceforge.net/DTD/sodipodi-0.dtd"
   xmlns="http://www.w3.org/2000/svg"
   xmlns:svg="http://www.w3.org/2000/svg">
  <sodipodi:namedview
     id="namedview7"
     pagecolor="#ffffff"
     bordercolor="#666666"
     borderopacity="1.0"
     inkscape:showpageshadow="2"
     inkscape:pageopacity="0.0"
     inkscape:pagecheckerboard="0"
     inkscape:deskcolor="#d1d1d1"
     inkscape:document-units="mm"
     showgrid="false"
     inkscape:zoom="0.77949635"
     inkscape:cx="405.38997"
     inkscape:cy="228.35258"
     inkscape:window-width="1920"
     inkscape:window-height="1043"
     inkscape:window-x="0"
     inkscape:window-y="0"
     inkscape:window-maximized="1"
     inkscape:current-layer="layer1" />
  <defs
     id="defs2" />
  <g
     inkscape:label="Layer 1"
     inkscape:groupmode="layer"
     id="layer1">
    <rect
       style="fill:#f9f9f9;stroke:#666666;stroke-width:0.264033"
       id="rect291"
       width="158.48598"
       height="105.5693"
       x="0.13201141"
       y="0.13201778" />
    <g
       aria-label="xv"
       id="text401"
       style="font-size:64.1531px;line-height:1.25;fill:#333333;stroke-width:1.60383">
      <path
         d="m 78.059886,70.458534 h -5.48509 q -0.705684,0 -1.122679,-0.352842 -0.384919,-0.384918 -0.641531,-0.83399 l -8.17952,-12.73439 q -0.128306,0.449071 -0.288689,0.898143 -0.128306,0.416995 -0.384919,0.769837 l -7.570065,11.06641 q -0.320766,0.449072 -0.705685,0.83399 -0.352842,0.352842 -0.994373,0.352842 H 47.587164 L 58.974339,53.778728 48.036236,37.96499 h 5.48509 q 0.705684,0 1.026449,0.224535 0.320766,0.224536 0.577378,0.641531 l 7.987061,12.189089 q 0.256612,-0.93022 0.801914,-1.796287 l 6.992688,-10.264495 q 0.288688,-0.449072 0.609454,-0.705684 0.352842,-0.288689 0.83399,-0.288689 h 5.260554 L 66.672711,53.49004 Z"
         style="font-family:Lato;-inkscape-font-specification:Lato"
         id="path237" />
      <path
         d="M 111.16283,37.96499 97.915218,70.458534 H 92.78297 L 79.535355,37.96499 h 4.651099 q 0.705684,0 1.154756,0.352842 0.449072,0.352842 0.609455,0.83399 l 8.243673,20.91391 q 0.384918,1.186833 0.673607,2.309512 0.288689,1.122679 0.545302,2.245358 0.256612,-1.122679 0.545301,-2.245358 0.288689,-1.122679 0.705684,-2.309512 l 8.339908,-20.91391 q 0.19245,-0.513225 0.64153,-0.83399 0.44907,-0.352842 1.05852,-0.352842 z"
         style="font-family:Lato;-inkscape-font-specification:Lato"
         id="path239" />
    </g>
  </g>
</svg>
